<?xml version="1.0" standalone="no"?><!DOCTYPE svg PUBLIC "-//W3C//DTD SVG 1.1//EN" "http://www.w3.org/Graphics/SVG/1.1/DTD/svg11.dtd"><svg t="1597755213780" class="icon" viewBox="0 0 1024 1024" version="1.1" xmlns="http://www.w3.org/2000/svg" p-id="4198" xmlns:xlink="http://www.w3.org/1999/xlink" width="200" height="200"><defs><style type="text/css"></style></defs><path d="M51.28594807 520.01601354c0 256.48890283 207.58691335 464.0758162 464.07581617 464.07581617s464.0758162-207.58691335 464.0758162-464.07581617S771.85066708 55.94019733 515.36176424 55.94019733s-464.0758162 207.58691335-464.07581617 464.07581621z" fill="#c1c4cc" p-id="4199"></path><path d="M560.26109902 519.55193759l178.37914291 178.37914146c11.89194257 11.89194257 11.89194257 32.89137359 0 44.8123219-11.89194257 11.89194257-32.89137359 11.89194257-44.81232191 0l-178.37914145-178.3791429-178.37914143 178.3791429c-11.89194257 11.89194257-32.89137359 11.89194257-44.81232191 0-11.89194257-11.92094686-11.89194257-32.92037789 0-44.8123219l178.3791429-178.37914146-177.7990469-177.82805264c-11.92094686-11.89194257-11.92094686-32.89137359 0-44.81232045 11.89194257-11.89194257 32.89137359-11.89194257 44.78331616 0l177.82805118 177.79904689 177.79904691-177.79904689c12.50104287-11.89194257 32.92037789-11.89194257 44.84132621 0 11.89194257 11.89194257 11.89194257 32.89137359 0 44.81232045l-177.82805267 177.79904836z" fill="#ffffff" p-id="4200"></path></svg>