<?xml version="1.0" standalone="no"?><!DOCTYPE svg PUBLIC "-//W3C//DTD SVG 1.1//EN" "http://www.w3.org/Graphics/SVG/1.1/DTD/svg11.dtd"><svg t="1597383437781" class="icon" viewBox="0 0 1261 1024" version="1.1" xmlns="http://www.w3.org/2000/svg" p-id="2654" xmlns:xlink="http://www.w3.org/1999/xlink" width="246.2890625" height="200"><defs><style type="text/css"></style></defs><path d="M99.586991 99.586991m-99.586991 0a99.586991 99.586991 0 1 0 199.173982 0 99.586991 99.586991 0 1 0-199.173982 0Z" p-id="2655"></path><path d="M307.814335 33.950111h953.836439v131.27376H307.814335z" p-id="2656"></path><path d="M99.586991 511.838333m-99.586991 0a99.586991 99.586991 0 1 0 199.173982 0 99.586991 99.586991 0 1 0-199.173982 0Z" p-id="2657"></path><path d="M307.814335 446.201452h953.836439v131.273761H307.814335z" p-id="2658"></path><path d="M99.586991 924.089675m-99.586991 0a99.586991 99.586991 0 1 0 199.173982 0 99.586991 99.586991 0 1 0-199.173982 0Z" p-id="2659"></path><path d="M307.814335 858.452794h953.836439v131.273761H307.814335z" p-id="2660"></path></svg>